name C:\Users\u0101727\Documents\MyRepositories\upper-imu-dc\Results\main_tracking\Case_22\SHRUG01_orientations_groundFrame.mot
datacolumns 13
datarows 14
range 1.21000000 1.34000000
endheader 
time	radius_imu_[0][0]	radius_imu_[0][1]	radius_imu_[0][2]	radius_imu_[1][0]	radius_imu_[1][1]	radius_imu_[1][2]	radius_imu_[2][0]	radius_imu_[2][1]	radius_imu_[2][2]	radius_imu_x	radius_imu_y	radius_imu_z	
          1.21000000	          0.48060130	         -0.16095774	          0.86204118	         -0.28701324	          0.90000015	          0.32805965	         -0.82864093	         -0.40508312	          0.38634424	         -0.70399353	          1.03928327	          0.32316807	
          1.22000000	          0.48808788	         -0.16254829	          0.85752450	         -0.28981903	          0.89657146	          0.33490975	         -0.82327100	         -0.41199232	          0.39049608	         -0.70891972	          1.03043820	          0.32147824	
          1.23000000	          0.49751488	         -0.16428479	          0.85175668	         -0.29179668	          0.89298774	          0.34267709	         -0.81690491	         -0.41902673	          0.39633694	         -0.71291531	          1.01932906	          0.31893765	
          1.24000000	          0.50827373	         -0.16645200	          0.84495654	         -0.29286008	          0.88926289	          0.35134668	         -0.80987085	         -0.42603432	          0.40324181	         -0.71673352	          1.00648390	          0.31647782	
          1.25000000	          0.51840440	         -0.16932252	          0.83820449	         -0.29338821	          0.88548779	          0.36032587	         -0.80323112	         -0.43271383	          0.40936353	         -0.72177318	          0.99398248	          0.31569866	
          1.26000000	          0.50134429	         -0.18574630	          0.84507527	         -0.29415258	          0.88192428	          0.36835285	         -0.81371258	         -0.43325267	          0.38750995	         -0.76005892	          1.00670594	          0.35481656	
          1.27000000	          0.50869153	         -0.18830699	          0.84010321	         -0.29524075	          0.87846439	          0.37567700	         -0.80874336	         -0.43913641	          0.39127150	         -0.76506779	          0.99747347	          0.35453747	
          1.28000000	          0.53487713	         -0.17986043	          0.82556446	         -0.29623397	          0.87514058	          0.38258907	         -0.79129760	         -0.44919838	          0.41481192	         -0.74501030	          0.97120174	          0.32438669	
          1.29000000	          0.51708738	         -0.19416929	          0.83361798	         -0.29806671	          0.87211936	          0.38802585	         -0.80235708	         -0.44911704	          0.39308651	         -0.77891947	          0.98562593	          0.35921400	
          1.30000000	          0.49387226	         -0.20914974	          0.84400626	         -0.30083325	          0.86960162	          0.39152571	         -0.81583671	         -0.44726884	          0.36655292	         -0.81832847	          1.00470962	          0.40059059	
          1.31000000	          0.47520851	         -0.21998554	          0.85192912	         -0.30381516	          0.86766372	          0.39351750	         -0.82575615	         -0.44583185	          0.34548624	         -0.85030149	          1.01965827	          0.43354960	
          1.32000000	          0.46055971	         -0.22859385	          0.85768853	         -0.30597544	          0.86615971	          0.39515364	         -0.83322493	         -0.44442346	          0.32897416	         -0.87653697	          1.03075713	          0.46071471	
          1.33000000	          0.44995606	         -0.23650269	          0.86116550	         -0.30642391	          0.86486909	          0.39762527	         -0.83883487	         -0.44279560	          0.31668301	         -0.89823245	          1.03755806	          0.48392732	
          1.34000000	          0.48106751	         -0.22336137	          0.84775218	         -0.30534366	          0.86376161	          0.40085051	         -0.82179030	         -0.45169191	          0.34732567	         -0.85681692	          1.01173279	          0.43468492	
